# xmcd
# 
# Track frame offsets:
#     150
#     26052
#     53198
#     77300
#     102691
#     130800
#     150789
#     186367
#     209104
# 
# Disc length: 3084
# 
# Revision: 3
# Processed by: cddbd v1.5.2PL0 Copyright (c) Steve Scherf et al.
# Submitted via: BonkEnc v1.0.8
# 
DISCID=750c0a09
DTITLE=Frode Kjekstad - New York Time
DYEAR=2002
DGENRE=Contemporary Jazz
TTITLE0=The Way You Look Tonight
TTITLE1=Sugar
TTITLE2=Autumn In New York
TTITLE3=Prospect Park S.W.
TTITLE4=Secret Love
TTITLE5=Brooklyn Bound
TTITLE6=Laura
TTITLE7=Road Song
TTITLE8=Over Easy
EXTD=YEAR: 2002
EXTT0=
EXTT1=
EXTT2=
EXTT3=
EXTT4=
EXTT5=
EXTT6=
EXTT7=
EXTT8=
PLAYORDER=
